<svg xmlns="http://www.w3.org/2000/svg" viewBox="0 0 128 128" role="img" aria-label="frog">
  <rect width="128" height="128" rx="28" fill="#f7fff2"/>
  <circle cx="42" cy="38" r="24" fill="#5fc45b"/>
  <circle cx="86" cy="38" r="24" fill="#5fc45b"/>
  <circle cx="64" cy="72" r="45" fill="#6fd269"/>
  <circle cx="42" cy="36" r="12" fill="#f7fff2"/>
  <circle cx="86" cy="36" r="12" fill="#f7fff2"/>
  <circle cx="45" cy="38" r="6" fill="#152015"/>
  <circle cx="83" cy="38" r="6" fill="#152015"/>
  <ellipse cx="50" cy="69" rx="5" ry="3.5" fill="#3b8e3b"/>
  <ellipse cx="78" cy="69" rx="5" ry="3.5" fill="#3b8e3b"/>
  <path d="M42 82c9 12 35 12 44 0" fill="none" stroke="#2d722f" stroke-width="6" stroke-linecap="round"/>
  <path d="M29 62c-7 3-12 10-13 19 7-3 14-4 21-2" fill="#6fd269"/>
  <path d="M99 62c7 3 12 10 13 19-7-3-14-4-21-2" fill="#6fd269"/>
</svg>
